<?xml version="1.0" standalone="no"?><!DOCTYPE svg PUBLIC "-//W3C//DTD SVG 1.1//EN" "http://www.w3.org/Graphics/SVG/1.1/DTD/svg11.dtd"><svg t="1530784557175" class="icon" style="" viewBox="0 0 1024 1024" version="1.1" xmlns="http://www.w3.org/2000/svg" p-id="1034" xmlns:xlink="http://www.w3.org/1999/xlink" width="128" height="128"><defs><style type="text/css"></style></defs><path d="M519.217 938.667h-14.166c-5.208-0.715-10.432-1.32-15.618-2.16-28.075-4.538-54.258-14.665-79.459-27.451-49.337-25.033-92.85-58.09-132.01-96.974-37.186-36.924-69.035-77.874-92.367-125.032-18.931-38.265-30.764-78.324-30.712-121.49 0.141-117.082 0.048-234.166 0.048-351.247v-4.266c0.673-0.342 0.9-0.543 1.144-0.568 1.242-0.122 2.487-0.264 3.733-0.284 32.517-0.511 64.865-2.64 96.916-8.66 30.718-5.77 60.963-13.228 90.133-24.498 39.92-15.42 78.074-34.54 114.917-56.283 17.45-10.298 34.299-21.49 49.941-34.42h0.833c1.264 1.056 2.5 2.148 3.796 3.163 27.967 21.914 58.579 39.582 90.124 55.673 41.322 21.077 83.755 39.37 129.112 50.118 23.504 5.57 47.191 10.13 71.285 11.996 16.595 1.285 33.254 1.748 49.884 2.576 4.1 0.203 8.2 0.394 12.584 0.605v5.045c0 116.916 0.027 233.833-0.054 350.75-0.006 8.87-0.3 17.794-1.278 26.601-3.346 30.183-12.336 58.794-25.047 86.279-18.204 39.362-42.566 74.673-71.306 106.984-48.587 54.627-104.655 99.552-171.26 130.556-19.531 9.091-39.778 16.2-61.055 20.013-6.67 1.194-13.41 1.993-20.118 2.974M214.161 269.1v3.017c0.001 99.583-0.122 199.167 0.17 298.75 0.034 11.43 1.558 23.019 3.812 34.248 6.596 32.852 21.284 62.357 39.644 90.06 36.855 55.61 84.149 100.892 138.844 138.647 25.302 17.464 51.9 32.609 81.283 42.284 15.733 5.178 31.705 7.839 48.32 4.658 22.335-4.274 42.848-13.25 62.632-24.01 42.63-23.19 80.467-52.798 114.759-86.99 32.036-31.944 59.961-67.039 80.283-107.709 14.678-29.372 24.09-60.12 24.048-93.392-0.126-98.469-0.045-196.94-0.043-295.412v-4.337c-14.036-2.11-27.501-3.911-40.886-6.192-37.546-6.398-74.24-16.051-109.638-30.196-49.703-19.86-97.208-44.1-142.49-72.653-2.086-1.315-3.554-1.26-5.591 0.024-33.612 21.192-68.837 39.348-104.928 55.909-45.579 20.915-92.92 36.264-142.215 45.453-15.793 2.945-31.713 5.2-48.004 7.84" p-id="1035" fill="#1296db"></path><path d="M670.467 388.454l54.144 46.865-232.268 267.657-152.057-129.14 46.837-55.159c32.587 27.374 65.041 54.64 97.929 82.268 61.81-70.834 123.475-141.506 185.415-212.49" p-id="1036" fill="#1296db"></path></svg>